HIERARCHY
ROOT Hips
{
	OFFSET 0.000000 0.000000 0.000000
	CHANNELS 6 Xposition Yposition Zposition Zrotation Yrotation Xrotation 
	JOINT LeftUpLeg_virtual
	{
		OFFSET 0.000000 0.000000 0.000000
		CHANNELS 3 Zrotation Yrotation Xrotation
		JOINT LeftUpLeg
		{
			OFFSET 10.205400 -3.823500 0.155100
			CHANNELS 3 Zrotation Yrotation Xrotation
			JOINT LeftLeg
			{
				OFFSET 0.708757 -12.982077 0.567790
				CHANNELS 3 Zrotation Yrotation Xrotation
				JOINT LeftFoot
				{
					OFFSET -0.708756 -10.717838 -2.184338
					CHANNELS 3 Zrotation Yrotation Xrotation
					JOINT LeftToeBase
					{
						OFFSET 0.108149 -7.191104 7.560241
						CHANNELS 3 Zrotation Yrotation Xrotation
						End Site
						{
							OFFSET 0.000000 0.000000 0.000000
						}
					}
				}
			}
		}
	}
	JOINT RightUpLeg_virtual
	{
		OFFSET 0.000000 0.000000 0.000000
		CHANNELS 3 Zrotation Yrotation Xrotation
		JOINT RightUpLeg
		{
			OFFSET -10.205400 -3.823500 0.005500
			CHANNELS 3 Zrotation Yrotation Xrotation
			JOINT RightLeg
			{
				OFFSET -0.708756 -12.982134 0.610632
				CHANNELS 3 Zrotation Yrotation Xrotation
				JOINT RightFoot
				{
					OFFSET 0.708754 -10.717769 -1.945823
					CHANNELS 3 Zrotation Yrotation Xrotation
					JOINT RightToeBase
					{
						OFFSET -0.108140 -7.191069 7.372968
						CHANNELS 3 Zrotation Yrotation Xrotation
						End Site
						{
							OFFSET 0.000000 0.000000 0.000000
						}
					}
				}
			}
		}
	}
	JOINT Spine_virtual
	{
		OFFSET 0.000000 0.000000 0.000000
		CHANNELS 3 Zrotation Yrotation Xrotation
		JOINT Spine
		{
			OFFSET 0.000000 6.876099 0.125700
			CHANNELS 3 Zrotation Yrotation Xrotation
			JOINT Spine1
			{
				OFFSET 0.000000 8.022060 0.146608
				CHANNELS 3 Zrotation Yrotation Xrotation
				JOINT Spine2
				{
					OFFSET 0.000000 9.168068 0.167552
					CHANNELS 3 Zrotation Yrotation Xrotation
					JOINT Neck_virtual
					{
						OFFSET 0.000000 0.000000 0.000000
						CHANNELS 3 Zrotation Yrotation Xrotation
						JOINT Neck
						{
							OFFSET 0.000000 10.314075 0.188496
							CHANNELS 3 Zrotation Yrotation Xrotation
							JOINT Head
							{
								OFFSET 0.000000 7.643700 -2.377400
								CHANNELS 3 Zrotation Yrotation Xrotation
								End Site
								{
									OFFSET 0.000000 0.000000 0.000000
								}
							}
						}
					}
					JOINT LeftShoulder_virtual
					{
						OFFSET 0.000000 0.000000 0.000000
						CHANNELS 3 Zrotation Yrotation Xrotation
						JOINT LeftShoulder
						{
							OFFSET 4.392200 8.824978 0.174984
							CHANNELS 3 Zrotation Yrotation Xrotation
							JOINT LeftArm
							{
								OFFSET 8.771219 -2.981674 -0.026999
								CHANNELS 3 Zrotation Yrotation Xrotation
								JOINT LeftForeArm
								{
									OFFSET 8.512804 0.000000 -0.000000
									CHANNELS 3 Zrotation Yrotation Xrotation
									JOINT LeftHand
									{
										OFFSET 18.484802 0.000000 -0.000000
										CHANNELS 3 Zrotation Yrotation Xrotation
										End Site
										{
											OFFSET 0.000000 0.000000 0.000000
										}
									}
								}
							}
						}
					}
					JOINT RightShoulder_virtual
					{
						OFFSET 0.000000 0.000000 0.000000
						CHANNELS 3 Zrotation Yrotation Xrotation
						JOINT RightShoulder
						{
							OFFSET -4.392200 8.824993 0.141379
							CHANNELS 3 Zrotation Yrotation Xrotation
							JOINT RightArm
							{
								OFFSET -8.771282 -2.981682 -0.094208
								CHANNELS 3 Zrotation Yrotation Xrotation
								JOINT RightForeArm
								{
									OFFSET -8.494598 0.000000 0.000000
									CHANNELS 3 Zrotation Yrotation Xrotation
									JOINT RightHand
									{
										OFFSET -18.483803 0.000000 0.000001
										CHANNELS 3 Zrotation Yrotation Xrotation
										End Site
										{
											OFFSET 0.000000 0.000000 0.000000
										}
									}
								}
							}
						}
					}
				}
			}
		}
	}
}
MOTION
Frames: 7
Frame Time: 0.033333
4.380759 35.758953 13.924474 179.959966 4.309805 -179.593240 -3.242797 -3.275715 10.413437 -15.365439 -0.723544 -17.464442 17.991333 6.431220 21.805959 1.738521 -2.340299 2.545899 0.000000 0.000000 0.000000 0.991307 -0.145619 8.375752 1.777098 1.358071 -10.722632 -6.768839 0.041525 17.930502 6.260311 2.581701 2.190460 0.000000 0.000000 0.000000 0.290322 0.849814 -2.245635 -3.286472 1.092050 -5.929179 0.346193 -3.740510 3.085683 -0.035656 0.054886 0.082340 0.201512 -2.447363 5.094920 -0.363650 2.620040 9.973945 0.000000 0.000000 0.000000 1.639188 -1.537560 2.482429 -8.314422 2.738328 -6.262253 -5.639654 12.888307 -41.077352 -1.233534 -43.989038 -3.057775 0.000000 0.000000 0.000000 -1.713351 -0.854562 1.798631 18.263012 -3.105824 -11.350766 13.183024 -11.708654 -48.028261 -1.657679 27.029186 1.771434 0.000000 0.000000 0.000000 
4.391813 35.758690 13.962737 179.979979 4.360140 -179.400273 -3.151830 -3.236946 10.657393 -15.130204 -1.391536 -17.115307 18.206337 6.073242 21.946479 1.491419 -2.526555 2.707135 0.000000 0.000000 0.000000 1.010760 -0.080520 8.462628 1.917955 1.115032 -10.657617 -6.601282 -0.077952 18.109794 5.908757 2.235065 2.422334 0.000000 0.000000 0.000000 0.260535 0.863665 -2.292437 -3.309393 1.038755 -6.006252 0.357763 -3.760087 3.024623 0.011567 0.022268 0.096026 0.151332 -2.282189 5.142115 -0.342695 2.557929 10.003500 0.000000 0.000000 0.000000 1.569984 -1.483645 2.442345 -8.269241 2.757061 -6.028119 -5.563282 12.859773 -41.153290 -1.093938 -44.000874 -3.215413 0.000000 0.000000 0.000000 -1.768069 -0.768628 1.859984 18.323413 -3.023639 -11.241127 13.164875 -11.634128 -48.263602 -1.672739 27.182975 1.726291 0.000000 0.000000 0.000000 
4.402443 35.768169 14.033278 179.906377 4.370698 -179.415805 -3.252918 -3.276244 10.633559 -15.070814 -1.298284 -17.229053 18.245735 6.105416 21.922073 1.417157 -2.551182 2.683072 0.000000 0.000000 0.000000 0.952176 -0.125075 8.464114 1.989662 1.051675 -10.781273 -6.744243 -0.157225 18.047942 6.072294 2.364711 2.512100 0.000000 0.000000 0.000000 0.186234 0.856565 -2.291312 -3.362928 1.013902 -5.955958 0.339778 -3.740570 3.112105 -0.011183 0.021464 0.046087 0.180195 -2.440862 5.151234 -0.238763 2.454076 10.114014 0.000000 0.000000 0.000000 1.625369 -1.485815 2.389188 -8.199380 2.701816 -6.117096 -5.491284 12.674674 -41.081412 -1.061473 -44.043846 -3.262469 0.000000 0.000000 0.000000 -1.702260 -0.819872 1.823174 18.457336 -3.057297 -11.280570 13.025462 -11.631264 -48.303361 -1.494430 27.316098 1.881153 0.000000 0.000000 0.000000 
4.404453 35.784496 14.140937 179.974419 4.504286 -179.459054 -3.198670 -3.237585 10.589353 -14.985852 -1.237136 -17.347557 18.147956 6.131089 21.922076 1.425179 -2.503930 2.651677 0.000000 0.000000 0.000000 1.035410 -0.109108 8.393080 2.033736 1.001594 -10.927376 -6.752929 0.016556 17.972801 6.035907 2.301192 2.685215 0.000000 0.000000 0.000000 0.201766 0.876134 -2.091718 -3.369251 1.030648 -5.940516 0.380701 -3.703871 2.982851 0.007499 0.032493 0.085794 0.129443 -2.229026 5.192139 -0.127979 2.253594 10.322576 0.000000 0.000000 0.000000 1.592103 -1.493773 2.500546 -8.140684 2.731195 -6.082236 -5.496157 12.501076 -41.108720 -1.026306 -43.992453 -3.282689 0.000000 0.000000 0.000000 -1.742690 -0.776923 1.835775 18.594193 -3.055838 -11.233341 12.974164 -11.572248 -48.299905 -1.432324 27.343112 1.866313 0.000000 0.000000 0.000000 
4.389232 35.809601 14.271013 179.935583 4.498347 -179.518490 -3.328154 -3.302240 10.468470 -14.909823 -1.093989 -17.447940 18.106456 6.183650 21.956514 1.368035 -2.492434 2.645611 0.000000 0.000000 0.000000 0.988953 -0.217072 8.258605 2.035334 0.954989 -11.062090 -6.878397 0.018480 17.920967 6.034610 2.567946 2.879870 0.000000 0.000000 0.000000 0.147991 0.822999 -2.036413 -3.432460 1.028248 -5.839215 0.374425 -3.689309 3.047840 -0.007523 0.015767 0.103686 0.169121 -2.271639 5.181954 0.139306 2.086794 10.595774 0.000000 0.000000 0.000000 1.595382 -1.460625 2.461103 -8.091199 2.710542 -6.053780 -5.657897 12.163187 -41.047777 -1.026087 -43.994727 -3.253562 0.000000 0.000000 0.000000 -1.707842 -0.814707 1.866790 18.733122 -3.121119 -11.194528 12.862988 -11.487063 -48.353023 -1.306190 27.309183 1.909229 0.000000 0.000000 0.000000 
4.359102 35.839119 14.417358 179.961114 4.657332 -179.509789 -3.374395 -3.245787 10.277925 -14.800665 -0.940523 -17.562119 18.023235 6.338915 21.959366 1.307736 -2.467415 2.704562 0.000000 0.000000 0.000000 1.048961 -0.171916 8.013536 2.004477 1.010632 -11.246948 -6.955371 0.167983 17.909659 6.140390 2.485884 3.165070 0.000000 0.000000 0.000000 0.123752 0.823908 -1.953101 -3.446481 1.074111 -5.724109 0.414113 -3.653409 3.048343 -0.031399 0.030501 0.035082 0.190960 -2.291709 5.281560 0.392616 1.831259 10.770883 0.000000 0.000000 0.000000 1.644675 -1.411886 2.556239 -8.034055 2.734472 -6.126080 -5.985665 11.886707 -41.018896 -0.936305 -44.138089 -3.276916 0.000000 0.000000 0.000000 -1.641362 -0.739923 1.970488 18.881006 -3.081903 -11.026099 12.750898 -11.393630 -48.448246 -1.184453 27.114727 1.887315 0.000000 0.000000 0.000000 
4.306756 35.868649 14.587396 179.927236 4.657436 -179.546412 -3.489339 -3.241793 10.098651 -14.767716 -0.695737 -17.666602 18.014812 6.530100 22.006764 1.160833 -2.478155 2.745778 0.000000 0.000000 0.000000 1.054974 -0.233340 7.807890 1.934232 0.914416 -11.464244 -7.004488 0.606398 17.984865 6.083424 2.471980 3.445988 0.000000 0.000000 0.000000 0.080544 0.859492 -1.860952 -3.496590 1.063623 -5.549735 0.444381 -3.607672 3.144325 -0.008936 -0.091196 0.083273 0.218007 -2.190850 5.263798 0.756923 1.615105 11.064820 0.000000 0.000000 0.000000 1.620392 -1.359046 2.512710 -7.972279 2.744765 -5.827404 -6.481940 11.596889 -41.007681 -0.801345 -44.303479 -3.321287 0.000000 0.000000 0.000000 -1.637390 -0.638896 1.973580 18.964223 -3.054256 -10.893200 12.727877 -11.246753 -48.499005 -1.091297 26.931166 1.812655 0.000000 0.000000 0.000000 
